<svg width="40" height="40" viewBox="0 0 40 40" fill="none" xmlns="http://www.w3.org/2000/svg">
<path d="M20 3.33331C10.8101 3.33331 3.33334 10.81 3.33334 20C3.33334 29.1899 10.8101 36.6666 20 36.6666C29.19 36.6666 36.6667 29.1899 36.6667 20C36.6667 10.81 29.19 3.33331 20 3.33331ZM20 5.83331C27.8389 5.83331 34.1667 12.1611 34.1667 20C34.1667 26.3878 29.9641 31.7687 24.1667 33.5433V29.2806C24.1667 27.6888 23.2494 26.3238 21.9238 25.6445C23.2128 25.3979 24.4096 24.909 25.415 24.2182C26.4203 23.5275 27.2053 22.6549 27.7047 21.6728C28.2041 20.6907 28.4035 19.6276 28.2864 18.5715C28.1692 17.5154 27.739 16.4969 27.0313 15.6006C27.4009 14.4628 27.8138 12.4672 26.8327 10.8968C24.9411 10.8968 23.7206 12.1934 23.138 12.9997C22.1422 12.6725 21.0765 12.5028 20 12.5C18.9228 12.5009 17.856 12.669 16.8587 12.9948C16.2748 12.1881 15.0552 10.8968 13.1673 10.8968C12.0414 12.699 12.7374 14.6371 13.1104 15.428C12.3548 16.3206 11.881 17.3463 11.7297 18.4174C11.5783 19.4885 11.7539 20.573 12.2413 21.578C12.7287 22.5829 13.5135 23.4783 14.5283 24.1874C15.5431 24.8965 16.7577 25.3982 18.068 25.6494C16.9796 26.2104 16.1644 27.2283 15.9147 28.4635H14.8193C13.7385 28.4635 13.3186 28.0243 12.7344 27.2835C12.1577 26.5427 11.5377 26.0449 10.7927 25.8382C10.391 25.7957 10.1204 26.1012 10.4704 26.372C11.6529 27.177 11.7345 28.4946 12.2087 29.3571C12.6403 30.1337 13.5247 30.8333 14.5247 30.8333H15.8333V33.5433C10.0359 31.7687 5.83334 26.3878 5.83334 20C5.83334 12.1611 12.1612 5.83331 20 5.83331Z" fill="black"/>
</svg>
