<svg width="30" height="34" viewBox="0 0 30 34" fill="none" xmlns="http://www.w3.org/2000/svg">
<g clip-path="url(#clip0_3_26)">
<path d="M1.90018 16.1932V31.5122C1.90018 31.9702 2.27328 32.3415 2.73351 32.3415H10.1578C10.618 32.3415 10.9911 31.9702 10.9911 31.5122V25.8987C10.9911 25.4407 11.3642 25.0694 11.8244 25.0694H18.75C19.2103 25.0694 19.5833 25.4407 19.5833 25.8987V31.5122C19.5833 31.9702 19.9564 32.3415 20.4167 32.3415H27.7335C28.1938 32.3415 28.5668 31.9722 28.5668 31.5142V16.1878C28.5668 15.9859 28.4928 15.7963 28.3586 15.6448L15.8586 1.53488C15.5268 1.16037 14.9402 1.16037 14.6084 1.53488L2.10841 15.6448C1.97422 15.7963 1.90018 15.9913 1.90018 16.1932Z" stroke="#556BE0" stroke-width="3"/>
</g>
<defs>
<clipPath id="clip0_3_26">
<rect width="30" height="34" fill="white"/>
</clipPath>
</defs>
</svg>
