<svg width="30" height="42" viewBox="0 0 30 42" fill="none" xmlns="http://www.w3.org/2000/svg">
<path d="M2.92404 32.1429C2.48174 32.1429 2.11987 31.7598 2.14399 31.2723C2.23245 29.7489 2.55412 28.2341 3.10096 26.8152C3.74429 25.1263 4.69321 23.5942 5.89143 22.2971C7.0816 21 8.50498 19.9815 10.0651 19.2763C11.6252 18.5799 13.2978 18.2143 14.9866 18.2143C16.6753 18.2143 18.348 18.5799 19.9081 19.2763C21.4682 19.9815 22.8916 21 24.0818 22.2971C25.28 23.5942 26.2289 25.1263 26.8722 26.8152C27.4191 28.2341 27.7407 29.7489 27.8292 31.2723C27.8533 31.7598 27.4914 32.1429 27.0491 32.1429H14.9866H2.92404Z" stroke="black" stroke-width="3"/>
<path d="M8.57144 11.2552C8.57144 7.40064 11.4467 4.28572 15.0048 4.28572C18.5629 4.28572 21.4286 7.40064 21.4286 11.2552C21.4286 15.0994 18.5629 18.2143 15.0048 18.2143C11.4467 18.2143 8.57144 15.0994 8.57144 11.2552Z" stroke="black" stroke-width="3"/>
</svg>
