<svg width="30" height="32" viewBox="0 0 30 32" fill="none" xmlns="http://www.w3.org/2000/svg">
<g clip-path="url(#clip0_3_40)">
<path d="M29.372 29.2766L20.9605 19.9541C20.6137 19.5697 20.0209 19.5392 19.6364 19.8861L19.0788 20.3892C18.6944 20.7361 18.6639 21.3289 19.0108 21.7133L27.4222 31.0358C27.7691 31.4202 28.3619 31.4506 28.7463 31.1038L29.304 30.6006C29.6884 30.2538 29.7188 29.661 29.372 29.2766Z" fill="black"/>
<path d="M12.2551 23.1039C18.2467 23.1039 23.1039 18.2467 23.1039 12.2551C23.1039 6.26344 18.2467 1.40625 12.2551 1.40625C6.26344 1.40625 1.40625 6.26344 1.40625 12.2551C1.40625 18.2467 6.26344 23.1039 12.2551 23.1039Z" stroke="black" stroke-width="3"/>
</g>
<defs>
<clipPath id="clip0_3_40">
<rect width="30" height="31.875" fill="white"/>
</clipPath>
</defs>
</svg>
