<svg width="40" height="40" viewBox="0 0 40 40" fill="none" xmlns="http://www.w3.org/2000/svg">
<path d="M34.2871 5.01953C33.7332 4.96078 33.131 5.04729 32.526 5.28646C31.776 5.58146 20.024 10.5251 9.06901 15.1367L5.44922 16.6602C4.04755 17.2285 3.33984 18.1528 3.33984 19.3978C3.33984 20.2695 3.70875 21.4518 5.46875 22.1484L11.5788 24.5964C12.1071 26.1814 13.3342 29.8615 13.6426 30.8398C13.8259 31.4198 14.289 32.881 15.459 33.2227C15.699 33.3043 15.9494 33.3464 16.2044 33.3464C16.9428 33.3464 17.4744 33.0027 17.7344 32.8027L21.6178 29.5182L26.3346 33.8802C26.5163 34.0652 27.4779 35 28.7695 35C30.3812 35 31.6037 33.6584 31.8587 32.36C31.9971 31.6484 36.5462 8.81177 36.5462 8.8151C36.9546 6.98344 36.2204 6.03325 35.7487 5.62825C35.3445 5.28242 34.8411 5.07828 34.2871 5.01953ZM33.1836 8.61979C32.5553 11.7698 29.13 28.9637 28.61 31.4421L21.7155 25.0651L17.0378 29.0267L18.3333 23.9583C18.3333 23.9583 27.2709 14.9114 27.8092 14.3848C28.2426 13.9631 28.3333 13.8153 28.3333 13.6686C28.3333 13.4736 28.233 13.3333 28.0013 13.3333C27.793 13.3333 27.51 13.533 27.36 13.6263C25.4544 14.8143 17.3402 19.4371 13.3464 21.709L7.55208 19.3945L10.3646 18.2129C17.5296 15.1962 30.2903 9.82312 33.1836 8.61979Z" fill="black"/>
</svg>
